<svg width="64" height="64" viewBox="0 0 64 64" fill="none" xmlns="http://www.w3.org/2000/svg">
<path d="M23.92 58.6673H39.92C53.2533 58.6673 58.5866 53.334 58.5866 40.0007V24.0007C58.5866 10.6673 53.2533 5.33398 39.92 5.33398H23.92C10.5866 5.33398 5.2533 10.6673 5.2533 24.0007V40.0007C5.2533 53.334 10.5866 58.6673 23.92 58.6673Z" stroke="#001973" stroke-width="1.5" stroke-linecap="round" stroke-linejoin="round"/>
<path d="M5.2533 33.8663L21.2533 33.813C23.2533 33.813 25.4933 35.333 26.24 37.1996L29.28 44.8796C29.9733 46.613 31.0666 46.613 31.76 44.8796L37.8666 29.3863C38.4533 27.893 39.5466 27.8396 40.2933 29.253L43.0666 34.5063C43.8933 36.0796 46.0266 37.3596 47.7866 37.3596H58.6133" stroke="#001973" stroke-width="1.5" stroke-linecap="round" stroke-linejoin="round"/>
</svg>
