<svg width="192" height="192" viewBox="0 0 192 192" fill="none" xmlns="http://www.w3.org/2000/svg">
<path d="M16 16H29.92C38.56 16 45.36 23.44 44.64 32L38 111.68C36.88 124.72 47.1999 135.92 60.3199 135.92H145.52C157.04 135.92 167.12 126.48 168 115.04L172.32 55.04C173.28 41.76 163.2 30.96 149.84 30.96H46.5601" stroke="#001973" stroke-width="1.5" stroke-miterlimit="10" stroke-linecap="round" stroke-linejoin="round"/>
<path d="M130 176C135.523 176 140 171.523 140 166C140 160.477 135.523 156 130 156C124.477 156 120 160.477 120 166C120 171.523 124.477 176 130 176Z" stroke="#001973" stroke-width="1.5" stroke-miterlimit="10" stroke-linecap="round" stroke-linejoin="round"/>
<path d="M66 176C71.5228 176 76 171.523 76 166C76 160.477 71.5228 156 66 156C60.4772 156 56 160.477 56 166C56 171.523 60.4772 176 66 176Z" stroke="#292D32" stroke-width="1.5" stroke-miterlimit="10" stroke-linecap="round" stroke-linejoin="round"/>
<path d="M72 64H168" stroke="#292D32" stroke-width="1.5" stroke-miterlimit="10" stroke-linecap="round" stroke-linejoin="round"/>
</svg>
