<svg width="192" height="192" viewBox="0 0 192 192" fill="none" xmlns="http://www.w3.org/2000/svg">
<path d="M158.319 119.441C141.839 135.841 118.239 140.881 97.5192 134.401L59.8392 172.001C57.1192 174.801 51.7592 176.481 47.9192 175.921L30.4792 173.521C24.7192 172.721 19.3592 167.281 18.4792 161.521L16.0792 144.081C15.5192 140.241 17.3592 134.881 19.9992 132.161L57.5992 94.5605C51.1992 73.7605 56.1592 50.1605 72.6392 33.7605C96.2392 10.1605 134.559 10.1605 158.239 33.7605C181.919 57.3605 181.919 95.8406 158.319 119.441Z" stroke="#001973" stroke-width="1.5" stroke-miterlimit="10" stroke-linecap="round" stroke-linejoin="round"/>
<path d="M55.1191 139.92L73.5191 158.32" stroke="#292D32" stroke-width="1.5" stroke-miterlimit="10" stroke-linecap="round" stroke-linejoin="round"/>
<path d="M116 88C122.627 88 128 82.6274 128 76C128 69.3726 122.627 64 116 64C109.373 64 104 69.3726 104 76C104 82.6274 109.373 88 116 88Z" stroke="#001973" stroke-width="1.5" stroke-linecap="round" stroke-linejoin="round"/>
</svg>
