<svg width="192" height="192" viewBox="0 0 192 192" fill="none" xmlns="http://www.w3.org/2000/svg">
<path d="M80.1602 140.16C83.8402 144.88 89.6002 148 96.0002 148C107.04 148 116 139.04 116 128C116 123.44 114.48 119.2 111.92 115.84" stroke="#001973" stroke-width="1.5" stroke-linecap="round" stroke-linejoin="round"/>
<path d="M22.56 166.4C17.68 160.32 16 150.64 16 136V120C16 88 24 80 56 80H136C138.88 80 141.52 80.08 144 80.24C169.36 81.68 176 90.88 176 120V136C176 168 168 176 136 176H56C53.12 176 50.48 175.92 48 175.76" stroke="#001973" stroke-width="1.5" stroke-linecap="round" stroke-linejoin="round"/>
<path d="M48 80V64C48 37.52 56 16 96 16C129.2 16 140.32 27.04 143.2 44.48" stroke="#292D32" stroke-width="1.5" stroke-linecap="round" stroke-linejoin="round"/>
<path d="M176 16L16 176" stroke="#001973" stroke-width="1.5" stroke-linecap="round" stroke-linejoin="round"/>
</svg>
