<svg width="192" height="192" viewBox="0 0 192 192" fill="none" xmlns="http://www.w3.org/2000/svg">
<path d="M176 50V90.7998C176 100.96 172.64 109.52 166.64 115.44C160.72 121.44 152.16 124.8 142 124.8V139.28C142 144.72 135.92 148 131.44 144.96L123.68 139.84C124.4 137.36 124.72 134.64 124.72 131.76V99.2002C124.72 82.8802 113.84 72 97.52 72H43.2C42.08 72 41.04 72.0802 40 72.1602V50C40 29.6 53.6 16 74 16H142C162.4 16 176 29.6 176 50Z" stroke="#001973" stroke-width="1.5" stroke-miterlimit="10" stroke-linecap="round" stroke-linejoin="round"/>
<path d="M124.72 99.2002V131.76C124.72 134.64 124.4 137.36 123.68 139.84C120.72 151.6 110.96 158.96 97.52 158.96H75.76L51.6 175.04C48 177.52 43.2 174.88 43.2 170.56V158.96C35.04 158.96 28.24 156.24 23.52 151.52C18.72 146.72 16 139.92 16 131.76V99.2002C16 84.0002 25.44 73.5202 40 72.1602C41.04 72.0802 42.08 72 43.2 72H97.52C113.84 72 124.72 82.8802 124.72 99.2002Z" stroke="#001973" stroke-width="1.5" stroke-miterlimit="10" stroke-linecap="round" stroke-linejoin="round"/>
</svg>
